<svg xmlns="http://www.w3.org/2000/svg" xmlns:xlink="http://www.w3.org/1999/xlink" id="body_1" preserveAspectRatio="xMinYMin meet" viewBox="0 0 793 1121"><defs><clipPath id="1"><path id="" clip-rule="evenodd" transform="matrix(1 0 0 1 0 0)" d="M0 841L0 -0.9000244L0 -0.9000244L595.3 -0.9000244L595.3 -0.9000244L595.3 841L595.3 841L0 841z" /></clipPath></defs><g transform="matrix(1.333333 0 0 1.333333 0 0)"><g clip-path="url(#1)"><path id="136" transform="matrix(1 0 0 -1 0 841)" d="M377 767.5L566.9 767.5L566.9 767.5L566.9 659L566.9 659L377 659z" stroke="#000000" stroke-width="0.5669" fill="none" /><g transform="matrix(0.24 0 0 0.24 22.67 19)"><g transform="matrix(1 0 0 1 0 0)"><image x="0" y="0" xlink:href="img_01.png" width="273" height="375" /></g></g><path id="759" transform="matrix(1 0 0 -1 0 841)" d="M22.67 644L45.35 644L45.35 629L22.67 629z" stroke="none" fill="#F2F2F2" fill-rule="nonzero" /><path id="760" transform="matrix(1 0 0 -1 0 841)" d="M22.67 644L45.35 644L45.35 644L45.35 629L45.35 629L22.67 629z" stroke="#000000" stroke-width="0.2835" fill="none" /><path id="764" transform="matrix(1 0 0 -1 0 841)" d="M45.35 644L209.8 644L209.8 629L45.35 629z" stroke="none" fill="#F2F2F2" fill-rule="nonzero" /><path id="765" transform="matrix(1 0 0 -1 0 841)" d="M45.35 644L209.8 644L209.8 644L209.8 629L209.8 629L45.35 629z" stroke="#000000" stroke-width="0.2835" fill="none" /><path id="784" transform="matrix(1 0 0 -1 0 841)" d="M209.8 644L238.1 644L238.1 629L209.8 629z" stroke="none" fill="#F2F2F2" fill-rule="nonzero" /><path id="785" transform="matrix(1 0 0 -1 0 841)" d="M209.8 644L238.1 644L238.1 644L238.1 629L238.1 629L209.8 629z" stroke="#000000" stroke-width="0.2835" fill="none" /><path id="788" transform="matrix(1 0 0 -1 0 841)" d="M238.1 644L306.1 644L306.1 629L238.1 629z" stroke="none" fill="#F2F2F2" fill-rule="nonzero" /><path id="789" transform="matrix(1 0 0 -1 0 841)" d="M238.1 644L306.1 644L306.1 644L306.1 629L306.1 629L238.1 629z" stroke="#000000" stroke-width="0.2835" fill="none" /><path id="794" transform="matrix(1 0 0 -1 0 841)" d="M306.1 644L365.7 644L365.7 629L306.1 629z" stroke="none" fill="#F2F2F2" fill-rule="nonzero" /><path id="795" transform="matrix(1 0 0 -1 0 841)" d="M306.1 644L365.7 644L365.7 644L365.7 629L365.7 629L306.1 629z" stroke="#000000" stroke-width="0.2835" fill="none" /><path id="804" transform="matrix(1 0 0 -1 0 841)" d="M365.7 644L405.3 644L405.3 629L365.7 629z" stroke="none" fill="#F2F2F2" fill-rule="nonzero" /><path id="805" transform="matrix(1 0 0 -1 0 841)" d="M365.7 644L405.3 644L405.3 644L405.3 629L405.3 629L365.7 629z" stroke="#000000" stroke-width="0.2835" fill="none" /><path id="810" transform="matrix(1 0 0 -1 0 841)" d="M405.3 644L566.9 644L566.9 629L405.3 629z" stroke="none" fill="#F2F2F2" fill-rule="nonzero" /><path id="811" transform="matrix(1 0 0 -1 0 841)" d="M405.3 644L566.9 644L566.9 644L566.9 629L566.9 629L405.3 629z" stroke="#000000" stroke-width="0.2835" fill="none" /><path id="817" transform="matrix(1 0 0 -1 0 841)" d="M22.67 629L566.9 629L566.9 629L566.9 439L566.9 439L22.67 439z" stroke="#000000" stroke-width="0.2835" fill="none" /></g></g></svg>